<svg
  xmlns="http://www.w3.org/2000/svg"
  width="800"
  height="800"
  viewBox="0 0 256 256"
>
  <path
    fill="white"
    d="m221.84 63.256-84-47.478a20.105 20.105 0 0 0-19.682 0l-84 47.479a20.031 20.031 0 0 0-10.159 17.41v94.665a20.032 20.032 0 0 0 10.16 17.412l83.998 47.478a20.106 20.106 0 0 0 19.683 0l84-47.479A20.031 20.031 0 0 0 232 175.333V80.666a20.032 20.032 0 0 0-10.16-17.41ZM207.999 173l-80 45.217-80-45.217V83l80-45.217 80 45.217ZM79.999 128a48 48 0 1 0 48-48 48.054 48.054 0 0 0-48 48Zm72 0a24 24 0 1 1-24-24 24.027 24.027 0 0 1 24 24Z"
  />
</svg>
