<svg
  xmlns="http://www.w3.org/2000/svg"
  width="800"
  height="800"
  fill="none"
  viewBox="0 0 24 24"
>
  <path
    fill="white"
    fill-rule="evenodd"
    d="M9.034 23.363a1 1 0 0 1-1.313-.427l-1.563-2.895-3.237-.592a1 1 0 0 1-.811-1.117l.438-3.26L.276 12.69a1 1 0 0 1 0-1.38l2.272-2.381-.438-3.262a1 1 0 0 1 .811-1.116l3.237-.592 1.563-2.896A1 1 0 0 1 9.034.637L12 2.06 14.966.637a1 1 0 0 1 1.313.426l1.563 2.896 3.237.592a1 1 0 0 1 .811 1.116l-.438 3.262 2.272 2.38a1 1 0 0 1 0 1.381l-2.271 2.381.437 3.261a1 1 0 0 1-.811 1.117l-3.237.592-1.563 2.895a1 1 0 0 1-1.313.427L12 21.939l-2.966 1.424Zm2.533-3.435a1 1 0 0 1 .866 0l2.54 1.22 1.337-2.48a1 1 0 0 1 .7-.508l2.771-.507-.375-2.791a1 1 0 0 1 .268-.824L21.618 12l-1.944-2.038a1 1 0 0 1-.268-.824l.375-2.791-2.77-.507a1 1 0 0 1-.701-.509l-1.338-2.478-2.54 1.219a1 1 0 0 1-.865 0l-2.54-1.22-1.337 2.48a1 1 0 0 1-.7.508l-2.771.507.375 2.791a1 1 0 0 1-.268.824L2.382 12l1.944 2.038a1 1 0 0 1 .268.823l-.375 2.792 2.77.507a1 1 0 0 1 .701.508l1.338 2.48 2.54-1.22Zm-1.36-4.721a1 1 0 0 1-1.414-1.414l5-5a1 1 0 1 1 1.414 1.414l-5 5ZM9.5 11a1.5 1.5 0 1 1 0-3 1.5 1.5 0 0 1 0 3Zm5 5a1.5 1.5 0 1 1 0-3 1.5 1.5 0 0 1 0 3Z"
    clip-rule="evenodd"
  />
</svg>
