<svg
  xmlns="http://www.w3.org/2000/svg"
  width="800"
  height="800"
  fill="none"
  viewBox="0 0 24 24"
>
  <path
    fill="white"
    d="M14.03 15.741a1 1 0 0 0 1.94-.482l-1.94.482Zm-6-.482a1 1 0 0 0 1.94.482l-1.94-.482ZM12 8.5a1 1 0 1 0 0 2v-2Zm.01 2a1 1 0 1 0 0-2v2Zm-7.918 9.282.454-.891-.454.891Zm-.874-.874.891-.454-.891.454Zm17.564 0-.891-.454.891.454Zm-.874.874-.454-.891.454.891Zm0-15.564-.454.891.454-.891Zm.874.874-.891.454.891-.454Zm-16.69-.874.454.891-.454-.891Zm-.874.874.891.454-.891-.454ZM12 9.5v2a2 2 0 0 0 2-2h-2Zm0 0h-2a2 2 0 0 0 2 2v-2Zm0 0v-2a2 2 0 0 0-2 2h2Zm0 0h2a2 2 0 0 0-2-2v2Zm0 5c1.145 0 1.884.655 2.03 1.241l1.94-.482C15.55 13.562 13.817 12.5 12 12.5v2Zm-2.03 1.241c.146-.586.885-1.241 2.03-1.241v-2c-1.817 0-3.549 1.062-3.97 2.759l1.94.482ZM12 10.5h.01v-2H12v2ZM6.2 5h11.6V3H6.2v2ZM20 7.2v9.6h2V7.2h-2ZM17.8 19H6.2v2h11.6v-2ZM4 16.8V7.2H2v9.6h2ZM6.2 19c-.577 0-.949 0-1.232-.024-.272-.022-.373-.06-.422-.085l-.908 1.782c.378.193.772.264 1.167.296.384.032.851.031 1.395.031v-2ZM2 16.8c0 .544 0 1.011.03 1.395.033.395.104.789.297 1.167l1.782-.908c-.025-.05-.063-.15-.085-.422C4 17.75 4 17.377 4 16.8H2Zm2.546 2.091a1 1 0 0 1-.437-.437l-1.782.908a3 3 0 0 0 1.311 1.311l.908-1.782ZM20 16.8c0 .577 0 .949-.024 1.232-.022.272-.06.372-.085.422l1.782.908c.193-.378.264-.772.296-1.167.032-.384.031-.851.031-1.395h-2ZM17.8 21c.544 0 1.011 0 1.395-.03.395-.033.789-.104 1.167-.297l-.908-1.782c-.05.025-.15.063-.422.085C18.75 19 18.377 19 17.8 19v2Zm2.091-2.546a1 1 0 0 1-.437.437l.908 1.782a3 3 0 0 0 1.311-1.311l-1.782-.908ZM17.8 5c.577 0 .949 0 1.232.024.272.022.372.06.422.085l.908-1.782c-.378-.193-.772-.264-1.167-.296C18.811 2.999 18.344 3 17.8 3v2ZM22 7.2c0-.544 0-1.011-.03-1.395-.033-.395-.104-.789-.297-1.167l-1.782.908c.025.05.063.15.085.422C20 6.25 20 6.623 20 7.2h2Zm-2.546-2.091a1 1 0 0 1 .437.437l1.782-.908a3 3 0 0 0-1.311-1.311l-.908 1.782ZM6.2 3c-.544 0-1.011 0-1.395.03-.395.033-.789.104-1.167.297l.908 1.782c.05-.025.15-.063.422-.085C5.25 5 5.623 5 6.2 5V3ZM4 7.2c0-.577 0-.949.024-1.232.022-.272.06-.373.085-.422l-1.782-.908c-.193.378-.264.772-.296 1.167C1.999 6.189 2 6.656 2 7.2h2Zm-.362-3.873a3 3 0 0 0-1.311 1.311l1.782.908a1 1 0 0 1 .437-.437l-.908-1.782Z"
  />
</svg>
